# xmcd
#
# Track frame offsets:
#	150
#	13760
#	25772
#	36457
#	48075
#	57725
#	70857
#	83877
#	96045
#	107810
#	122932
#	133397
#	147410
#	163847
#	178295
#	189600
#	204622
#	220162
#
# Disc length: 3104 seconds
#
# Revision: 1
# Processed by: cddbd v1.5.2PL0 Copyright (c) Steve Scherf et al.
# Submitted via: audiograbber 1.83.01
#
DISCID=1a0c1e12
DTITLE=The Drifters With Ben E King  CD2 - Collection
DYEAR=1999
DGENRE=Popular
TTITLE0=Stand By Me
TTITLE1=I'll Take You Home (Unlisted)
TTITLE2=Dance With Me
TTITLE3=Sauurday Night at the Movies
TTITLE4=There Goes My Baby
TTITLE5=On Broadway
TTITLE6=Lonely Drifter
TTITLE7=Bring It On Home To Me
TTITLE8=White Christmas
TTITLE9=Supernatural Thing
TTITLE10=Hello Josephine (My Girl Josephine)
TTITLE11=Summertime
TTITLE12=Unchained Melody
TTITLE13=Tie A Yellow Ribbon Round The Old Oak Tree
TTITLE14=Loves Me Like A Rock
TTITLE15=Third Rate Romance
TTITLE16=If Loving You Is Wrong
TTITLE17=Sitting On The Dock Of The Bay
EXTD=This second disk has an extra track (Track2 )which is unlisted
EXTT0=
EXTT1=This track is unlisted in the track listing CD insert.
EXTT2=
EXTT3=
EXTT4=
EXTT5=
EXTT6=
EXTT7=
EXTT8=
EXTT9=
EXTT10=
EXTT11=
EXTT12=
EXTT13=
EXTT14=
EXTT15=
EXTT16=
EXTT17=
PLAYORDER=
